# xmcd
# Copyright (C) 1995-1998 Ti Kan
#
# Track frame offsets:
#       150
#       14647
#       27989
#       45171
#       54898
#       65068
#       81734
#       93128
#       105839
#       119610
#       130894
#       139524
#       154660
#       167204
#       180526
#       203080
#       210775
#       225367
#       238979
#       247479
#       258166
#       269443
#       291438
#       306137
#       319745
#       334080
#       343770
#       353902
#
# Disc length: 4821 seconds
#
# Revision: 0
# Processed by: cddbd v1.5.2PL0 Copyright (c) Steve Scherf et al.
# Submitted via: CD-Transfer v1.0
#
DISCID=9912d31c
DTITLE=Rockabilly 1 - 
DYEAR=1900
DGENRE=
TTITLE0=69 Beavershot Ready To Rock
TTITLE1=Black Raven Mound Of Clay
TTITLE2=Blue Cats Heaven's Gate
TTITLE3=Bob and The Bearcats The Mess Around
TTITLE4=Brains, The Spaghetti Western
TTITLE5=Higham, Darrell Nobody
TTITLE6=Farrell Brothers, The The Baddest One Around
TTITLE7=Frantic Flintstones, The Gone, Gone, Real Gone
TTITLE8=Go-Getters, The Welcome To My Hell
TTITLE9=Green Monster Be My Baby
TTITLE10=Heavy Trash Bumble Bee
TTITLE11=Heavy Trash Kissy Baby
TTITLE12=Brenston, Jackie Rocket 88
TTITLE13=Jets Jitterbuggin Baby
TTITLE14=Johnny Black Fight Back
TTITLE15=King Drappers, The Alabama Shakes
TTITLE16=Kitty, Daisy and Lewis Going Up The Country
TTITLE17=Necromantix My Girl
TTITLE18=Polecats Big Green Car
TTITLE19=Quakes Lovers Curse
TTITLE20=Razorbacks Restless For The Road
TTITLE21=Red Hot 'n' Blue Sure Like The Look In Your Eyes
TTITLE22=Restless I Go Wild
TTITLE23=Ronnie Hayward Trio Miss Pearl
TTITLE24=Taggy Tones Big Fat Stella
TTITLE25=Union Avenue Ace Of Spades
TTITLE26=Way Out West I Love My Car
TTITLE27=Young Savages, The Top Down Mama
EXTD=
EXTT0=
EXTT1=
EXTT2=
EXTT3=
EXTT4=
EXTT5=
EXTT6=
EXTT7=
EXTT8=
EXTT9=
EXTT10=
EXTT11=
EXTT12=
EXTT13=
EXTT14=
EXTT15=
EXTT16=
EXTT17=
EXTT18=
EXTT19=
EXTT20=
EXTT21=
EXTT22=
EXTT23=
EXTT24=
EXTT25=
EXTT26=
EXTT27=
PLAYORDER=
